<svg width="100" height="100" viewBox="0 0 100 100" xmlns="http://www.w3.org/2000/svg">
  <!-- Nord Palette -->
  <!-- Snow Storm: #ECEFF4, #E5E9F0 -->
  <!-- Frost: #8FBCBB, #88C0D0, #81A1C1 -->
  
  <rect width="100" height="100" rx="15" fill="#ECEFF4"/>
  
  <!-- Cogwheel (Game Engine) -->
  <g transform="translate(50, 50)" fill="#81A1C1">
    <path d="M-30,-8 L-40,-8 L-40,8 L-30,8 A30,30 0 0,0 -21.2,21.2 L-26.8,26.8 L-15.5,38.2 L-10,32.5 A30,30 0 0,0 10,32.5 L15.5,38.2 L26.8,26.8 L21.2,21.2 A30,30 0 0,0 30,8 L40,8 L40,-8 L30,-8 A30,30 0 0,0 21.2,-21.2 L26.8,-26.8 L15.5,-38.2 L10,-32.5 A30,30 0 0,0 -10,-32.5 L-15.5,-38.2 L-26.8,-26.8 L-21.2,-21.2 A30,30 0 0,0 -30,-8 Z" />
    <circle r="22" fill="#ECEFF4"/>
  </g>

  <!-- Tiny Robot (AI) -->
  <g transform="translate(50, 52)">
    <!-- Body -->
    <rect x="-12" y="-10" width="24" height="18" rx="4" fill="#88C0D0"/>
    <!-- Antenna -->
    <line x1="0" y1="-10" x2="0" y2="-16" stroke="#4C566A" stroke-width="2"/>
    <circle cx="0" cy="-17" r="2" fill="#BF616A"/>
    <!-- Eyes -->
    <circle cx="-5" cy="-4" r="2" fill="#ECEFF4"/>
    <circle cx="5" cy="-4" r="2" fill="#ECEFF4"/>
    <!-- Mouth -->
    <rect x="-4" y="2" width="8" height="1.5" rx="1" fill="#4C566A"/>
  </g>
</svg>
